<?xml version="1.0" encoding="UTF-8" standalone="no"?>
<!DOCTYPE svg PUBLIC "-//W3C//DTD SVG 1.1//EN" "http://www.w3.org/Graphics/SVG/1.1/DTD/svg11.dtd">
<svg version="1.1" xmlns="http://www.w3.org/2000/svg" xmlns:xlink="http://www.w3.org/1999/xlink" preserveAspectRatio="xMidYMid meet" viewBox="0 0 640 640" width="800" height="800"><defs><path d="M320 7.92C143.2 7.92 0 151.2 0 327.92C0 469.33 91.68 589.25 218.8 631.52C234.8 634.53 240.67 624.64 240.67 616.13C240.67 608.53 240.4 588.4 240.27 561.73C151.25 581.04 132.48 518.8 132.48 518.8C117.92 481.87 96.88 472 96.88 472C67.89 452.16 99.12 452.56 99.12 452.56C131.25 454.8 148.13 485.52 148.13 485.52C176.67 534.45 223.04 520.32 241.33 512.13C244.21 491.44 252.45 477.33 261.6 469.33C190.53 461.33 115.84 433.81 115.84 311.2C115.84 276.27 128.24 247.73 148.77 225.33C145.17 217.25 134.37 184.72 151.57 140.64C151.57 140.64 178.37 132.05 239.57 173.44C265.17 166.32 292.37 162.8 319.57 162.64C346.77 162.8 373.97 166.32 399.57 173.44C460.37 132.05 487.17 140.64 487.17 140.64C504.37 184.72 493.57 217.25 490.37 225.33C510.77 247.73 523.17 276.27 523.17 311.2C523.17 434.13 448.37 461.2 377.17 469.07C388.37 478.67 398.77 498.29 398.77 528.27C398.77 571.09 398.37 605.49 398.37 615.89C398.37 624.29 403.97 634.29 420.37 631.09C548.4 589.12 640 469.12 640 327.92C640 151.2 496.72 7.92 320 7.92" id="a4TJPyj2zf"></path></defs><g><g><g><use xlink:href="#a4TJPyj2zf" opacity="1" fill="#ffffff" fill-opacity="1"></use><g><use xlink:href="#a4TJPyj2zf" opacity="1" fill-opacity="0" stroke="#000000" stroke-width="1" stroke-opacity="0"></use></g></g></g></g></svg>